Coordinates
version=1
nRows=26
nColumns=24
inDegrees=yes

Units are S.I. units (second, meters, Newtons, ...)
Angles are in degrees.

endheader
time	pelvis_tilt	pelvis_list	pelvis_rotation	pelvis_tx	pelvis_ty	pelvis_tz	hip_flexion_r	hip_adduction_r	hip_rotation_r	knee_angle_r	ankle_angle_r	subtalar_angle_r	mtp_angle_r	hip_flexion_l	hip_adduction_l	hip_rotation_l	knee_angle_l	ankle_angle_l	subtalar_angle_l	mtp_angle_l	lumbar_extension	lumbar_bending	lumbar_rotation
      4.55000000	     70.33385430	     -2.62155145	     -4.79115798	      0.55677974	      0.97137290	     -0.29816756	     13.33528131	    -13.22902995	     -8.38528535	    -64.14863412	    -28.43675535	      0.00000000	      0.00000000	     -2.24517408	     -5.56551027	      4.19848678	    -43.90485684	    -41.42107434	      0.00000000	      0.00000000	      0.00000000	      0.00000000	      0.00000000
      4.56000000	     70.40461454	     -2.62362272	     -4.76060583	      0.55670159	      0.97140238	     -0.29812142	     13.30523950	    -13.18302658	     -8.61474637	    -63.96370194	    -28.39086091	      0.00000000	      0.00000000	     -2.31411283	     -5.55779424	      4.27975698	    -43.81560813	    -41.42793584	      0.00000000	      0.00000000	      0.00000000	      0.00000000	      0.00000000
      4.57000000	     70.47747825	     -2.62234353	     -4.72993105	      0.55661034	      0.97140598	     -0.29805044	     13.26594741	    -13.13332577	     -8.84460260	    -63.76049480	    -28.33236819	      0.00000000	      0.00000000	     -2.39085010	     -5.55902412	      4.34127846	    -43.71739331	    -41.42712605	      0.00000000	      0.00000000	      0.00000000	      0.00000000	      0.00000000
      4.58000000	     70.55254615	     -2.61881394	     -4.69944216	      0.55651568	      0.97139541	     -0.29797131	     13.21533535	    -13.08021025	     -9.07254072	    -63.53949988	    -28.26876152	      0.00000000	      0.00000000	     -2.47514807	     -5.56997492	      4.38215924	    -43.61245788	    -41.42064774	      0.00000000	      0.00000000	      0.00000000	      0.00000000	      0.00000000
      4.59000000	     70.62864400	     -2.61555028	     -4.66900279	      0.55644855	      0.97140213	     -0.29791748	     13.15005267	    -13.02458940	     -9.29575960	    -63.30215894	    -28.20903324	      0.00000000	      0.00000000	     -2.56702264	     -5.58953820	      4.40441743	    -43.50323189	    -41.41036824	      0.00000000	      0.00000000	      0.00000000	      0.00000000	      0.00000000
      4.60000000	     70.70453879	     -2.61430780	     -4.63784409	      0.55642309	      0.97144417	     -0.29790460	     13.06703870	    -12.96655675	     -9.51140808	    -63.05109136	    -28.16158929	      0.00000000	      0.00000000	     -2.66620435	     -5.61511301	      4.41256805	    -43.39244947	    -41.39796876	      0.00000000	      0.00000000	      0.00000000	      0.00000000	      0.00000000
      4.61000000	     70.78061667	     -2.61464520	     -4.60442090	      0.55642722	      0.97150954	     -0.29791820	     12.96531892	    -12.90500974	     -9.71682236	    -62.78965506	    -28.13218116	      0.00000000	      0.00000000	     -2.77152619	     -5.64383695	      4.41293874	    -43.28309570	    -41.38496425	      0.00000000	      0.00000000	      0.00000000	      0.00000000	      0.00000000
      4.62000000	     70.85882619	     -2.61439912	     -4.56677462	      0.55643917	      0.97157274	     -0.29793795	     12.84654205	    -12.83875318	     -9.90940035	    -62.52149249	    -28.12265132	      0.00000000	      0.00000000	     -2.88062905	     -5.67378312	      4.41257022	    -43.17818932	    -41.37265109	      0.00000000	      0.00000000	      0.00000000	      0.00000000	      0.00000000
      4.63000000	     70.94083854	     -2.61129251	     -4.52319957	      0.55643959	      0.97161654	     -0.29794892	     12.71420065	    -12.76785637	    -10.08662064	    -62.25021628	    -28.13088947	      0.00000000	      0.00000000	     -2.99013356	     -5.70408568	      4.41767882	    -43.08054723	    -41.36200673	      0.00000000	      0.00000000	      0.00000000	      0.00000000	      0.00000000
      4.64000000	     71.02602378	     -2.60401990	     -4.47299071	      0.55641811	      0.97163466	     -0.29793735	     12.57249630	    -12.69410146	    -10.24656859	    -61.97902824	    -28.15183461	      0.00000000	      0.00000000	     -3.09618992	     -5.73420530	      4.43208467	    -42.99258953	    -41.35364724	      0.00000000	      0.00000000	      0.00000000	      0.00000000	      0.00000000
      4.65000000	     71.11060840	     -2.59238802	     -4.41707406	      0.55638465	      0.97163272	     -0.29790850	     12.42543912	    -12.62046550	    -10.38856867	    -61.71039062	    -28.17899195	      0.00000000	      0.00000000	     -3.19501254	     -5.76311802	      4.45622579	    -42.91613138	    -41.34789206	      0.00000000	      0.00000000	      0.00000000	      0.00000000	      0.00000000
      4.66000000	     71.18897151	     -2.57712459	     -4.35787872	      0.55636239	      0.97163063	     -0.29788917	     12.27664809	    -12.55008563	    -10.51335700	    -61.44593208	    -28.20589807	      0.00000000	      0.00000000	     -3.28295362	     -5.78879503	      4.48718888	    -42.85206408	    -41.34487915	      0.00000000	      0.00000000	      0.00000000	      0.00000000	      0.00000000
      4.67000000	     71.25624414	     -2.55929336	     -4.29852806	      0.55636275	      0.97165190	     -0.29789915	     12.12978460	    -12.48527674	    -10.62265119	    -61.18675297	    -28.22730796	      0.00000000	      0.00000000	     -3.35658345	     -5.80866639	      4.51996391	    -42.80010436	    -41.34462377	      0.00000000	      0.00000000	      0.00000000	      0.00000000	      0.00000000
      4.68000000	     71.30985566	     -2.53938143	     -4.24223664	      0.55638212	      0.97170383	     -0.29794016	     11.98865465	    -12.42729851	    -10.71825494	    -60.93421241	    -28.24018993	      0.00000000	      0.00000000	     -3.41348409	     -5.82134118	      4.54960213	    -42.75892113	    -41.34694916	      0.00000000	      0.00000000	      0.00000000	      0.00000000	      0.00000000
      4.69000000	     71.34933937	     -2.51736945	     -4.19182745	      0.55641336	      0.97176757	     -0.29799936	     11.85664130	    -12.37701840	    -10.80098486	    -60.69079003	    -28.24445223	      0.00000000	      0.00000000	     -3.45328540	     -5.82798049	      4.57310161	    -42.72656113	    -41.35132038	      0.00000000	      0.00000000	      0.00000000	      0.00000000	      0.00000000
      4.70000000	     71.37568001	     -2.49369771	     -4.14892774	      0.55644915	      0.97181493	     -0.29805743	     11.73622243	    -12.33516043	    -10.87023041	    -60.46042331	    -28.24306076	      0.00000000	      0.00000000	     -3.47806949	     -5.83167907	      4.58991748	    -42.70088493	    -41.35670649	      0.00000000	      0.00000000	      0.00000000	      0.00000000	      0.00000000
      4.71000000	     71.39108622	     -2.46945636	     -4.11337989	      0.55648471	      0.97183797	     -0.29810657	     11.62891451	    -12.30139798	    -10.92467892	    -60.24806121	    -28.24126103	      0.00000000	      0.00000000	     -3.49179904	     -5.83551293	      4.60121931	    -42.67984401	    -41.36156537	      0.00000000	      0.00000000	      0.00000000	      0.00000000	      0.00000000
      4.72000000	     71.39865400	     -2.44584437	     -4.08355390	      0.55652130	      0.97185271	     -0.29815482	     11.53507812	    -12.27394527	    -10.96346589	    -60.05854470	    -28.24492196	      0.00000000	      0.00000000	     -3.49898465	     -5.84109708	      4.60884279	    -42.66165026	    -41.36402498	      0.00000000	      0.00000000	      0.00000000	      0.00000000	      0.00000000
      4.73000000	     71.40145763	     -2.42377659	     -4.05751424	      0.55656237	      0.97187352	     -0.29820967	     11.45339323	    -12.25064286	    -10.98694013	    -59.89535598	    -28.25845158	      0.00000000	      0.00000000	     -3.50322478	     -5.84846512	      4.61462324	    -42.64494879	    -41.36231608	      0.00000000	      0.00000000	      0.00000000	      0.00000000	      0.00000000
      4.74000000	     71.40185116	     -2.40371489	     -4.03408878	      0.55660691	      0.97190112	     -0.29826541	     11.38104193	    -12.23037426	    -10.99685957	    -59.75981525	    -28.28306951	      0.00000000	      0.00000000	     -3.50646826	     -5.85681835	      4.62023784	    -42.62902865	    -41.35538863	      0.00000000	      0.00000000	      0.00000000	      0.00000000	      0.00000000
      4.75000000	     71.40126158	     -2.38557175	     -4.01307467	      0.55664733	      0.97192964	     -0.29830946	     11.31490160	    -12.21355058	    -10.99604397	    -59.65110123	    -28.31618927	      0.00000000	      0.00000000	     -3.50942214	     -5.86535254	      4.62734581	    -42.61402103	    -41.34349856	      0.00000000	      0.00000000	      0.00000000	      0.00000000	      0.00000000
      4.76000000	     71.40025477	     -2.36897357	     -3.99471597	      0.55667588	      0.97195004	     -0.29833623	     11.25271183	    -12.20155261	    -10.98764565	    -59.56714720	    -28.35217978	      0.00000000	      0.00000000	     -3.51231539	     -5.87352666	      4.63767773	    -42.60075365	    -41.32843876	      0.00000000	      0.00000000	      0.00000000	      0.00000000	      0.00000000
      4.77000000	     71.39902497	     -2.35392956	     -3.97902908	      0.55669263	      0.97195631	     -0.29835287	     11.19370385	    -12.19589447	    -10.97439681	    -59.50591440	    -28.38417889	      0.00000000	      0.00000000	     -3.51523243	     -5.88094885	      4.65296249	    -42.59023122	    -41.31326145	      0.00000000	      0.00000000	      0.00000000	      0.00000000	      0.00000000
      4.78000000	     71.39787870	     -2.34111114	     -3.96564666	      0.55670278	      0.97195265	     -0.29837144	     11.13856793	    -12.19775629	    -10.95831548	    -59.46641526	    -28.40623720	      0.00000000	      0.00000000	     -3.51814423	     -5.88756487	      4.67477839	    -42.58322517	    -41.30165251	      0.00000000	      0.00000000	      0.00000000	      0.00000000	      0.00000000
      4.79000000	     71.39718826	     -2.33144319	     -3.95413742	      0.55670972	      0.97194894	     -0.29839473	     11.08876999	    -12.20794498	    -10.94094562	    -59.44898158	    -28.41498598	      0.00000000	      0.00000000	     -3.52091621	     -5.89402920	      4.70422712	    -42.58022309	    -41.29717500	      0.00000000	      0.00000000	      0.00000000	      0.00000000	      0.00000000
      4.80000000	     71.39699025	     -2.32539907	     -3.94428269	      0.55671445	      0.97195026	     -0.29841675	     11.04570891	    -12.22674226	    -10.92387570	    -59.45461301	    -28.41033855	      0.00000000	      0.00000000	     -3.52339413	     -5.90148105	      4.74135648	    -42.58161171	    -41.30254021	      0.00000000	      0.00000000	      0.00000000	      0.00000000	      0.00000000
